<?xml version="1.0" standalone="no"?>
<!DOCTYPE svg PUBLIC "-//W3C//DTD SVG 20010904//EN"
 "http://www.w3.org/TR/2001/REC-SVG-20010904/DTD/svg10.dtd">
<svg version="1.0" xmlns="http://www.w3.org/2000/svg"
 width="250.000000pt" height="250.000000pt" viewBox="0 0 300.000000 345.000000"
 preserveAspectRatio="xMidYMid meet">
<metadata>
Created by potrace 1.10, written by Peter Selinger 2001-2011
</metadata>
<g transform="translate(0.000000,345.000000) scale(0.100000,-0.100000)"
fill="#ffffff" stroke="none">
<path d="M1270 3313 c-118 -69 -305 -177 -415 -241 -110 -63 -245 -141 -300
-173 -55 -32 -200 -116 -322 -186 l-223 -128 3 -859 2 -858 270 -156 c149 -86
483 -278 744 -428 l474 -272 81 48 c107 63 1229 711 1329 767 l77 44 0 858 0
858 -262 150 c-145 83 -477 273 -738 423 -261 150 -481 274 -490 276 -8 2
-112 -54 -230 -123z m463 -42 c122 -70 393 -226 602 -345 209 -119 387 -221
395 -226 8 -5 59 -35 113 -66 53 -31 99 -59 101 -63 2 -3 5 -383 7 -845 l4
-838 -190 -110 c-104 -61 -424 -246 -710 -411 -286 -165 -527 -305 -536 -310
-13 -8 -77 25 -295 150 -154 88 -295 170 -314 180 -41 23 -274 157 -310 178
-14 8 -145 84 -292 167 l-267 153 0 840 -1 840 283 163 c155 90 289 167 297
172 12 8 236 137 490 282 19 11 71 41 115 66 44 25 82 50 83 54 2 4 9 8 15 8
7 1 46 21 87 45 41 25 81 45 88 45 7 0 113 -58 235 -129z"/>
<path d="M1460 2971 c-19 -10 -163 -93 -320 -183 -157 -91 -377 -218 -490
-283 -113 -65 -215 -127 -228 -138 l-22 -20 0 -620 0 -619 28 -25 c15 -14 57
-42 94 -62 37 -20 267 -152 513 -294 246 -141 455 -257 466 -257 15 0 491 269
918 519 24 14 66 39 95 54 88 49 86 42 86 266 0 152 -3 201 -14 217 -8 11 -55
60 -105 109 -50 49 -90 92 -89 96 2 4 49 55 106 113 l102 106 0 198 c0 193 -1
199 -22 219 -25 23 -1064 623 -1079 623 -2 0 -20 -8 -39 -19z m467 -257 c235
-135 476 -274 535 -308 l108 -61 0 -196 0 -195 -113 -112 -113 -112 113 -111
113 -112 0 -197 0 -197 -127 -73 c-71 -41 -309 -179 -531 -307 -222 -128 -406
-233 -410 -233 -4 0 -246 137 -537 304 l-530 305 -2 618 -3 618 43 24 c85 48
845 486 932 537 50 30 91 54 92 54 0 0 194 -111 430 -246z"/>
<path d="M1285 2353 c-115 -67 -261 -151 -322 -185 l-112 -63 -1 -183 0 -183
63 34 c196 108 576 307 586 307 6 0 82 -35 169 -79 l157 -79 152 92 c84 50
152 93 153 96 0 3 -53 35 -118 72 -64 36 -200 114 -302 173 -102 59 -192 110
-200 114 -10 5 -85 -33 -225 -116z m373 -4 c48 -27 94 -54 102 -59 8 -5 79
-46 158 -91 78 -44 144 -84 147 -88 2 -4 -51 -40 -119 -80 l-123 -72 -153 76
c-84 41 -161 75 -172 75 -10 0 -85 -35 -166 -79 -81 -43 -201 -106 -267 -141
-66 -34 -135 -72 -153 -82 l-33 -20 3 148 3 148 270 157 c149 87 286 166 305
177 40 22 37 24 198 -69z"/>
<path d="M1175 1549 c-176 -98 -321 -183 -323 -188 -2 -5 11 -17 28 -26 18 -9
165 -93 327 -186 l294 -169 177 102 c97 56 242 140 322 186 132 75 169 102
142 102 -10 0 -56 25 -471 261 -95 55 -174 99 -175 98 0 -1 -145 -81 -321
-180z m614 -22 c157 -89 284 -166 284 -172 -1 -11 -550 -334 -570 -334 -6 -1
-27 8 -45 18 -18 11 -52 30 -74 43 -204 115 -474 273 -474 279 0 3 35 24 78
47 42 22 104 56 137 75 33 19 94 53 135 75 41 22 111 61 155 86 44 25 82 46
85 46 3 -1 133 -74 289 -163z"/>
<!-- <path d="M600 71 c0 -6 4 -13 10 -16 6 -3 7 1 4 9 -7 18 -14 21 -14 7z"/> -->
</g>
</svg>
